PathFileType	4	(X/Y/Z)	RBDS018\RBDS018runT35.trc
DataRate	CameraRate	NumFrames	NumMarkers	Units	OrigDataRate	OrigDataStartFrame	OrigNumFrames
150.000000	150.000000	4	33	mm	150.000000	0	4500
Frame#	Time	L.ASIS			L.Heel.Bottom			L.Heel.Lateral			L.Heel.Top			L.Iliac.Crest			L.MT1			L.MT5			L.PSIS			L.Shank.Bottom.Lateral			L.Shank.Bottom.Medial			L.Shank.Top.Lateral			L.Shank.Top.Medial			L.Thigh.Bottom.Lateral			L.Thigh.Bottom.Medial			L.Thigh.Top.Lateral			L.Thigh.Top.Medial			R.ASIS			R.ASY			R.Heel.Bottom			R.Heel.Lateral			R.Heel.Top			R.Iliac.Crest			R.MT1			R.MT5			R.PSIS			R.Shank.Bottom.Lateral			R.Shank.Bottom.Medial			R.Shank.Top.Lateral			R.Shank.Top.Medial			R.Thigh.Bottom.Lateral			R.Thigh.Bottom.Medial			R.Thigh.Top.Lateral			R.Thigh.Top.Medial			
		X1	Y1	Z1	X2	Y2	Z2	X3	Y3	Z3	X4	Y4	Z4	X5	Y5	Z5	X6	Y6	Z6	X7	Y7	Z7	X8	Y8	Z8	X9	Y9	Z9	X10	Y10	Z10	X11	Y11	Z11	X12	Y12	Z12	X13	Y13	Z13	X14	Y14	Z14	X15	Y15	Z15	X16	Y16	Z16	X17	Y17	Z17	X18	Y18	Z18	X19	Y19	Z19	X20	Y20	Z20	X21	Y21	Z21	X22	Y22	Z22	X23	Y23	Z23	X24	Y24	Z24	X25	Y25	Z25	X26	Y26	Z26	X27	Y27	Z27	X28	Y28	Z28	X29	Y29	Z29	X30	Y30	Z30	X31	Y31	Z31	X32	Y32	Z32	X33	Y33	Z33	

1	0	2109.885804284744	977.7637501400915	931.5631551110678	1781.037951401382	48.07986118354869	1031.201822155879	1809.953899600692	52.60237651311289	982.2323167294229	1797.0384087924	95.81750296605293	1024.77293896888	2034.355791644728	1043.807288031042	893.9421680841427	2004.953360798085	39.83456631113207	1069.045313389015	1972.927218549687	41.58961719016347	954.1426375901962	1942.08535795772	1001.666005866456	1020.170292850501	1905.633376469577	178.695576523796	939.1274578506089	1877.549220904456	205.2294684008947	972.5806700329906	1938.748602431139	246.2501911637265	908.4417269193383	1913.979696187474	276.7333453986463	944.5168865835926	2075.166299173161	580.53653977033	857.4794222097642	2021.307222637434	571.551910005454	906.0192099893749	2048.154012484782	686.3028583654839	846.7714330067739	1996.401514563973	677.3942972439456	892.4318837862313	2144.206874394847	962.1901560822552	1157.020954493469	1809.690819655117	375.6912812831571	1089.529709613723	1775.158606611238	574.5053957805846	1089.339834392784	1788.736193629275	551.3942650992068	1128.123890984	1822.646766383329	557.1554504326097	1089.462784047859	2084.381980236665	1039.967118760102	1201.70829338867	1762.299036492801	354.0226774017704	1042.268711788963	1765.262622489316	377.0079892212495	1151.66412336289	1961.090211829423	996.0682132609503	1125.975356891635	1939.609345873085	492.7234057432806	1157.445354486431	1942.160993229829	540.4065751985495	1129.010004174134	2019.433457340558	499.267338268293	1172.164474466915	2021.039989530403	544.7136020458056	1143.982788980629	2222.409383865768	571.0701176311924	1204.115187550643	2162.271532000596	548.1784460981069	1170.542168310742	2173.202872430433	667.0053448494867	1228.221371391404	2114.844135030722	643.4288601488506	1201.256556629586	
2	0.006666666666666667	2110.495960052593	979.3731431821554	931.5029589299105	1757.892956086679	52.1975800403288	1030.860872039349	1787.031044700216	55.85938164085662	981.9214157146258	1774.574316605696	99.73801325367968	1024.069913338273	2035.20535784388	1046.144490503786	893.8128406694382	1981.261713261609	39.9913419175442	1068.89298399604	1949.271385058244	41.7315285472874	954.4717404736788	1942.493978179017	1004.102643716408	1018.908368809278	1883.5903354827	182.2463540526837	939.3358333940552	1856.145022677789	209.0149355625045	973.143082022414	1917.741296288317	249.3666279806366	908.9015738067468	1893.662402828508	280.0397069461497	945.3307312465924	2062.877428326226	581.2544991024035	858.0408970367757	2007.824169066763	574.4072006488589	905.434970950925	2040.191201797372	687.8334620045307	847.3212066618659	1987.550072699179	681.0864718712587	892.2811125837686	2143.089564676834	965.8716615646263	1158.031153647441	1829.303051995425	364.5589165427115	1089.785107413944	1782.900803381543	560.2201096474844	1090.815004166904	1797.934927300531	537.7435772993251	1129.121723157395	1831.266794341327	545.746527345435	1090.662108225417	2082.319318665561	1042.311193079244	1201.761668858486	1783.291071420873	340.2435793729258	1042.190619686724	1785.115309742181	362.7931760712999	1151.855272082226	1960.479638886623	999.2189949304878	1124.788305710132	1951.309926730328	486.2952043390495	1158.435193640973	1951.224388323765	534.7686162830013	1131.615204711938	2030.58404888364	496.6772223754425	1173.971437278123	2029.506375201473	542.9803143821714	1147.389997406208	2231.578266248529	580.6535143568993	1205.561976365722	2172.735275518976	555.7180572966995	1171.464385480823	2178.745150176592	674.5162345518643	1229.489176413759	2121.73408457977	648.9867262139211	1201.800385097536	
3	0.01333333333333333	2111.25425230848	981.1128920331626	931.4683056614764	1734.869796769115	56.61304406487663	1030.485999651562	1764.230281593639	59.36399438224956	981.5870094251771	1752.295398961182	103.9153848158217	1023.345178185212	2036.289348367221	1048.608893180534	893.6317601358065	1957.567065024494	40.13662566505047	1068.773845509775	1925.647089543329	41.87557140119789	954.8118788974325	1943.013692763776	1006.675615213983	1017.562211966416	1861.689972940941	186.0368292537927	939.5777785073928	1834.876743692327	213.0091678340401	973.7511266119591	1896.832436122956	252.7596606714481	909.4190400465993	1873.436472761919	283.5849887548917	946.2172506369665	2050.633747045215	582.2553900515046	858.6947600125826	1994.498196293736	577.5858281820983	905.0386921655125	2032.294469949588	689.5944667649372	847.9289707375378	1978.835938699025	685.0392915560845	892.2337796900272	2142.03346105235	969.6973334502638	1158.990393936095	1849.148452929933	353.3608317969466	1090.098640445038	1790.914538822982	545.60499373686	1092.099893210203	1807.365307073734	523.8404124594538	1129.971450571103	1840.09681856484	534.0450893176074	1091.712287743927	2080.355743803259	1044.885048771295	1201.752081409317	1804.628939379914	326.3918590223598	1042.187701286274	1805.229196550101	348.5716470538071	1152.092528524497	1959.947286817011	1002.485197985977	1123.548712883386	1963.06199473589	479.7935734639838	1159.362489448502	1960.319921025586	528.9425282285662	1134.020632302564	2041.668793520967	494.0767442172952	1175.702942998495	2037.898691565792	541.1126282673703	1150.587674925845	2240.526254759714	590.2347808943899	1206.990994283151	2182.970212252798	563.3405991420406	1172.331026008386	2184.180363354253	682.0547408273937	1230.729760380572	2128.489880655492	654.6514946134364	1202.290104225619	
4	0.02	2112.298536961639	983.1040262460265	931.4803511642411	1712.110097316807	61.61102982266994	1030.056480565597	1741.681371035537	63.35349830965636	981.2131885433696	1730.406132921399	108.589579546316	1022.58187912589	2037.842997590064	1051.327822327032	893.3577136279511	1933.881310360698	40.23606937576097	1068.694903841985	1902.078920193923	42.01469904977409	955.1517760101219	1943.750244046323	1009.505524395892	1016.0552611766	1840.073371904954	190.2788504285044	939.8764001599135	1813.882389594211	217.3878182225473	974.4447797414091	1876.110570106878	256.6815379387993	910.0435034601827	1853.384919896441	287.5808109877643	947.2430145304841	2038.455347675951	583.8238327472386	859.5358074023346	1981.449907882445	581.4118017354582	905.0069362335986	2024.506957318778	691.8179079330323	848.6524775648944	1970.376284809734	689.5136314777653	892.3965879984814	2141.101278687124	973.8069378404965	1159.845167106165	1869.431142120843	342.0328955067301	1090.537038765334	1799.441847041082	530.3614413976924	1093.005956571189	1817.230901777665	509.456130846943	1130.523251405499	1849.328180718748	521.7872125067075	1092.461837699505	2078.583200154228	1047.903061292749	1201.615575956883	1826.626932260221	312.3894661353234	1042.35050056825	1825.823915882884	334.3365764523015	1152.427437512713	1959.565455304692	1005.970288110037	1122.205259923928	1974.916216670629	473.1681396212028	1160.170576056445	1969.482080204952	522.7680867162773	1136.043348360984	2052.634158755077	491.475253341054	1177.287126346521	2046.156721389557	539.0019931164052	1153.379919800137	2249.059421653701	599.8291950377134	1208.38126407999	2192.775335063296	571.1366707337661	1173.087817267038	2189.410661307071	689.6613134007744	1231.915822791098	2134.995673111211	660.5342492649027	1202.670133407977	
